<svg version="1.0" xmlns="http://www.w3.org/2000/svg"
 width="64" height="64" viewBox="0 0 64.000000 64.000000"
 preserveAspectRatio="xMidYMid meet">

<g transform="translate(0.000000,64.000000) scale(0.100000,-0.100000)"
fill="#000000" stroke="none">
<path d="M440 596 c-47 -37 -58 -42 -77 -33 -20 9 -31 4 -80 -35 -47 -37 -58
-52 -59 -76 0 -21 -10 -38 -32 -57 -48 -40 -57 -61 -37 -91 21 -32 43 -30 95
7 23 17 46 27 50 22 5 -4 -59 -62 -141 -128 -88 -71 -152 -129 -155 -143 -7
-27 19 -62 47 -62 9 0 87 57 173 126 85 69 160 123 165 119 14 -8 52 31 45 48
-8 21 43 61 75 59 16 -1 34 5 41 13 10 12 5 24 -29 66 -23 28 -41 56 -41 60 0
20 20 7 54 -36 41 -49 78 -59 96 -26 35 66 -39 211 -107 211 -18 0 -48 -16
-83 -44z m130 -6 c25 -27 59 -114 48 -125 -2 -3 -20 15 -38 40 -38 50 -66 57
-96 24 -33 -36 -54 -43 -70 -22 -7 10 -14 21 -14 25 0 13 103 88 122 88 11 0
32 -13 48 -30z m-177 -88 c42 -54 46 -80 16 -129 -18 -29 -20 -39 -10 -59 14
-32 14 -44 -2 -44 -14 0 -157 171 -157 187 0 10 98 93 109 93 3 -1 23 -22 44
-48z m180 -22 c49 -64 24 -69 -27 -6 -39 47 -43 56 -23 56 6 -1 29 -23 50 -50z
m-80 -49 c42 -55 45 -65 17 -56 -14 5 -32 -2 -56 -20 -19 -15 -37 -25 -40 -22
-3 2 7 22 21 42 20 30 24 46 19 72 -3 18 -4 33 -2 33 2 0 21 -22 41 -49z
m-251 -99 c-41 -36 -65 -38 -70 -6 -2 15 9 31 35 53 l38 31 17 -22 c18 -23 17
-24 -20 -56z m76 -102 c-109 -92 -260 -210 -267 -210 -15 0 -31 27 -25 41 3 8
71 67 152 132 l146 119 18 -24 c17 -23 17 -23 -24 -58z"/>
<path d="M297 482 c-23 -26 -21 -45 8 -72 21 -20 28 -22 50 -12 36 17 40 37
15 72 -24 34 -49 38 -73 12z m58 -24 c14 -21 14 -24 -2 -36 -14 -10 -20 -9
-37 7 -16 17 -17 23 -6 35 17 21 26 20 45 -6z"/>
</g>
</svg>